<svg xmlns="http://www.w3.org/2000/svg" viewBox="0 0 32 32">
  <rect width="32" height="32" rx="7" fill="#060A13"/>
  <g fill="#16305F">
    <circle cx="7" cy="9" r="1.6"/><circle cx="12" cy="9" r="1.6"/><circle cx="17" cy="9" r="1.6"/><circle cx="22" cy="9" r="1.6"/><circle cx="27" cy="9" r="1.6"/>
    <circle cx="7" cy="14" r="1.6"/><circle cx="12" cy="14" r="1.6"/><circle cx="22" cy="14" r="1.6"/><circle cx="27" cy="14" r="1.6"/>
    <circle cx="7" cy="19" r="1.6"/><circle cx="27" cy="19" r="1.6"/>
  </g>
  <g fill="#4C9AFF">
    <circle cx="17" cy="14" r="1.8"/>
    <circle cx="12" cy="19" r="1.8"/><circle cx="17" cy="19" r="1.8"/><circle cx="22" cy="19" r="1.8"/>
    <circle cx="7" cy="24" r="1.8"/><circle cx="12" cy="24" r="1.8"/><circle cx="17" cy="24" r="1.8"/><circle cx="22" cy="24" r="1.8"/><circle cx="27" cy="24" r="1.8"/>
  </g>
  <circle cx="27" cy="9" r="2" fill="#DCEBFF"/>
</svg>
